# xmcd CD database file
#
# Track frame offsets:
#	150
#	14340
#	25685
#	44750
#	58030
#	76913
#	90723
#	106263
#	119613
#	137295
#	150955
#
# Disc length: 2250 seconds
#
# Revision: 0
# Processed by: cddbd v1.5.2PL0 Copyright (c) Steve Scherf et al.
# Submitted via: CDex 1.70beta2
#
DISCID=7f08c80b
DTITLE=Rich and Val - Cdn - OVM - Carp, ON - One Step At A Time...
DYEAR=1900
DGENRE=Country
TTITLE0=One Step At A Time...
TTITLE1=Till Love Falls Over You
TTITLE2=Family's Love
TTITLE3=Lovin' Forever
TTITLE4=Play It Smart
TTITLE5=That's How You Know Love's Right
TTITLE6=Small Town
TTITLE7=What A Memory
TTITLE8=Why I'm Leaving God Only Knows
TTITLE9=Eves Never Lies
TTITLE10=Devil Plays Your Hand
EXTD=
EXTT0=
EXTT1=
EXTT2=
EXTT3=
EXTT4=
EXTT5=
EXTT6=
EXTT7=
EXTT8=
EXTT9=
EXTT10=
PLAYORDER=
